<svg width="60" height="59" viewBox="0 0 60 59" fill="none" xmlns="http://www.w3.org/2000/svg">
<path fill-rule="evenodd" clip-rule="evenodd" d="M59.5 29.5C59.5 45.7654 46.3143 58.9512 30.0488 58.9512C13.7834 58.9512 0.597656 45.7654 0.597656 29.5C0.597656 13.2346 13.7834 0.0488281 30.0488 0.0488281C46.3143 0.0488281 59.5 13.2346 59.5 29.5ZM39.8736 14.8998C41.0874 15.5587 41.5001 17.055 40.7954 18.2419L31.2954 34.2419C30.5907 35.4288 29.0354 35.8568 27.8217 35.1979C26.6079 34.5389 26.1952 33.0426 26.8999 31.8557L36.3999 15.8557C37.1046 14.6688 38.6599 14.2409 39.8736 14.8998ZM27.3035 41.2067C28.017 40.0246 27.6156 38.5252 26.4069 37.8577C25.1983 37.1902 23.6401 37.6074 22.9266 38.7894L21.4092 41.3035C20.6957 42.4856 21.0972 43.985 22.3058 44.6525C23.5144 45.32 25.0726 44.9028 25.7861 43.7208L27.3035 41.2067Z" fill="#1E1E1E"/>
</svg>
